STARTFONT 2.1
FONT -ibm-courier-medium-o-normal--24-240-100-100-m-159-iso8859-2
SIZE 24 100 100
FONTBOUNDINGBOX 27 32 -2 -5
COMMENT $Header: courO24.bdf,v 1.1 96/01/22 23:46:56 peterlin Exp $
COMMENT 
COMMENT Copyright International Business Machines,Corp. 1991
COMMENT IBM Courier is a Trademark of the IBM Corporation.
COMMENT 
COMMENT Automatic rendering from Adobe Type 1 outline:
COMMENT Primoz Peterlin <primoz.peterlin@biofiz.mf.uni-lj.si>
COMMENT couri.pfa rendered at 24.000000 points
COMMENT Checksum eb69a063
STARTPROPERTIES 3
FONT_ASCENT 26
FONT_DESCENT 5
DEFAULT_CHAR 32
ENDPROPERTIES
CHARS 191
STARTCHAR space
ENCODING 32
SWIDTH 597 0
DWIDTH 20 0
BBX 0 0 0 1
BITMAP
ENDCHAR
STARTCHAR exclam
ENCODING 33
SWIDTH 597 0
DWIDTH 20 0
BBX 7 19 8 1
BITMAP
0e
0e
0c
0c
0c
1c
18
18
18
18
10
30
00
00
00
30
78
f8
70
ENDCHAR
STARTCHAR quotedbl
ENCODING 34
SWIDTH 597 0
DWIDTH 20 0
BBX 11 9 8 11
BITMAP
38e0
71c0
71c0
71c0
71c0
6180
e380
e380
e380
ENDCHAR
STARTCHAR numbersign
ENCODING 35
SWIDTH 597 0
DWIDTH 20 0
BBX 17 24 3 -1
BITMAP
008300
018200
018200
010600
010600
030400
030c00
020c00
3fff80
3fff80
060800
041800
0c1800
0c1000
083000
fffe00
fffe00
182000
106000
306000
304000
30c000
20c000
608000
ENDCHAR
STARTCHAR dollar
ENCODING 36
SWIDTH 597 0
DWIDTH 20 0
BBX 16 26 4 -3
BITMAP
0020
0060
0060
0042
03f3
0f5e
18c6
30c6
3080
3080
3980
1f80
0fc0
01f0
011c
030c
030c
c30c
c218
e270
ffe0
9f80
0600
0400
0c00
0c00
ENDCHAR
STARTCHAR percent
ENCODING 37
SWIDTH 597 0
DWIDTH 20 0
BBX 15 20 5 1
BITMAP
1e00
3f00
6180
c180
c180
c380
e304
7e7e
3ff8
1fe0
ff00
fcf0
e3f8
871c
060c
0c0c
0c0c
0c38
0ff0
03c0
ENDCHAR
STARTCHAR ampersand
ENCODING 38
SWIDTH 597 0
DWIDTH 20 0
BBX 14 18 4 1
BITMAP
01f0
07f8
0618
0c00
0c00
0c00
0c00
0600
0e0c
1b0c
7118
6190
c1b0
c0e0
c0c0
c1e0
7f70
3c30
ENDCHAR
STARTCHAR quoteright
ENCODING 39
SWIDTH 597 0
DWIDTH 20 0
BBX 8 8 8 12
BITMAP
0f
0e
1c
1c
38
30
70
60
ENDCHAR
STARTCHAR parenleft
ENCODING 40
SWIDTH 597 0
DWIDTH 20 0
BBX 9 25 11 -2
BITMAP
0180
0300
0600
0e00
0c00
1800
1800
3000
3000
6000
6000
6000
c000
c000
c000
c000
c000
c000
c000
c000
c000
6000
6000
6000
2000
ENDCHAR
STARTCHAR parenright
ENCODING 41
SWIDTH 597 0
DWIDTH 20 0
BBX 9 25 4 -2
BITMAP
0600
0700
0300
0300
0380
0180
0180
0180
0180
0180
0180
0180
0380
0300
0300
0700
0600
0600
0c00
1c00
1800
3000
7000
6000
c000
ENDCHAR
STARTCHAR asterisk
ENCODING 42
SWIDTH 597 0
DWIDTH 20 0
BBX 12 12 7 8
BITMAP
0300
0300
0600
c610
f6f0
ffe0
0e00
1e00
3b00
7380
e180
4100
ENDCHAR
STARTCHAR plus
ENCODING 43
SWIDTH 597 0
DWIDTH 20 0
BBX 16 16 4 3
BITMAP
0180
0180
0180
0180
0180
0180
0180
ffff
ffff
0180
0180
0180
0180
0180
0180
0180
ENDCHAR
STARTCHAR comma
ENCODING 44
SWIDTH 597 0
DWIDTH 20 0
BBX 8 8 5 -3
BITMAP
0f
0e
1c
1c
38
70
60
e0
ENDCHAR
STARTCHAR minus
ENCODING 45
SWIDTH 597 0
DWIDTH 20 0
BBX 15 2 5 10
BITMAP
fffe
fffe
ENDCHAR
STARTCHAR period
ENCODING 46
SWIDTH 597 0
DWIDTH 20 0
BBX 5 4 8 1
BITMAP
70
f8
f8
f0
ENDCHAR
STARTCHAR slash
ENCODING 47
SWIDTH 597 0
DWIDTH 20 0
BBX 19 28 2 -4
BITMAP
000040
000060
0000c0
000180
000180
000300
000600
000600
000c00
001800
001800
003000
007000
006000
00c000
01c000
018000
030000
070000
060000
0c0000
0c0000
180000
300000
300000
600000
c00000
400000
ENDCHAR
STARTCHAR zero
ENCODING 48
SWIDTH 597 0
DWIDTH 20 0
BBX 14 20 5 1
BITMAP
01f0
07f8
0e18
1c0c
180c
300c
300c
600c
600c
600c
c018
c018
c018
c030
c030
c060
c0e0
61c0
7f80
3e00
ENDCHAR
STARTCHAR one
ENCODING 49
SWIDTH 597 0
DWIDTH 20 0
BBX 13 20 4 1
BITMAP
0060
03e0
0e60
0860
0060
00c0
00c0
00c0
00c0
0080
0080
0180
0180
0100
0100
0100
0300
0200
fff8
fff8
ENDCHAR
STARTCHAR two
ENCODING 50
SWIDTH 597 0
DWIDTH 20 0
BBX 16 20 3 1
BITMAP
01f8
07fe
0e07
0c03
0803
0003
0003
0006
000c
001c
0038
0060
00c0
0380
0700
0c08
3808
7018
fff8
fff8
ENDCHAR
STARTCHAR three
ENCODING 51
SWIDTH 597 0
DWIDTH 20 0
BBX 15 20 3 1
BITMAP
01f8
0ffc
0c0e
0006
0006
0004
0018
0020
01f0
01f8
0038
001c
000c
000c
000c
0018
0018
4070
ffe0
1f80
ENDCHAR
STARTCHAR four
ENCODING 52
SWIDTH 597 0
DWIDTH 20 0
BBX 14 20 3 1
BITMAP
001c
003c
0028
0078
00d8
0198
0318
0630
0c30
0830
1030
2020
4060
fffc
fffc
0060
0040
00c0
0ff8
1ff8
ENDCHAR
STARTCHAR five
ENCODING 53
SWIDTH 597 0
DWIDTH 20 0
BBX 16 20 3 1
BITMAP
07ff
07ff
0400
0400
0c00
0c00
0800
0bf0
0ff8
1c1c
000e
0006
0006
0006
0006
000c
0018
4078
7fe0
1f80
ENDCHAR
STARTCHAR six
ENCODING 54
SWIDTH 597 0
DWIDTH 20 0
BBX 15 20 5 1
BITMAP
007e
01fe
0700
0c00
1800
1000
3000
2000
67c0
5fe0
7870
e030
c030
c030
c030
c060
c060
61c0
7f80
1e00
ENDCHAR
STARTCHAR seven
ENCODING 55
SWIDTH 597 0
DWIDTH 20 0
BBX 14 20 7 1
BITMAP
7ffc
7ffc
c008
c018
c030
0020
0060
0040
00c0
0180
0180
0300
0700
0600
0c00
1c00
1800
3800
3000
1000
ENDCHAR
STARTCHAR eight
ENCODING 56
SWIDTH 597 0
DWIDTH 20 0
BBX 15 20 4 1
BITMAP
01f8
07fc
0e0e
0c06
1806
1806
180c
180c
0c38
0fe0
0ff0
3838
700c
600c
c00c
c00c
c018
e070
7fe0
1f80
ENDCHAR
STARTCHAR nine
ENCODING 57
SWIDTH 597 0
DWIDTH 20 0
BBX 16 20 3 1
BITMAP
00f8
01fe
0306
0603
0603
0c03
0c03
0c03
0c07
0e1e
07fe
03e6
0004
000c
0018
0018
0070
01e0
7fc0
7f00
ENDCHAR
STARTCHAR colon
ENCODING 58
SWIDTH 597 0
DWIDTH 20 0
BBX 7 13 8 1
BITMAP
1c
3e
3e
3c
00
00
00
00
00
70
f8
f8
f0
ENDCHAR
STARTCHAR semicolon
ENCODING 59
SWIDTH 597 0
DWIDTH 20 0
BBX 10 16 5 -2
BITMAP
0380
07c0
07c0
0780
0000
0000
0000
0000
0f00
0e00
1c00
1c00
3800
3000
7000
6000
ENDCHAR
STARTCHAR less
ENCODING 60
SWIDTH 597 0
DWIDTH 20 0
BBX 16 15 4 4
BITMAP
0002
0007
001e
0078
01e0
0700
1c00
7000
7800
0e00
03c0
00f0
003e
000f
0003
ENDCHAR
STARTCHAR equal
ENCODING 61
SWIDTH 597 0
DWIDTH 20 0
BBX 16 8 4 7
BITMAP
ffff
ffff
0000
0000
0000
0000
ffff
ffff
ENDCHAR
STARTCHAR greater
ENCODING 62
SWIDTH 597 0
DWIDTH 20 0
BBX 16 14 5 4
BITMAP
e000
7800
1e00
0780
01e0
0038
000e
003e
01f8
0fc0
7f00
fc00
f000
4000
ENDCHAR
STARTCHAR question
ENCODING 63
SWIDTH 597 0
DWIDTH 20 0
BBX 12 19 7 1
BITMAP
1f80
7fe0
6060
c030
c030
0030
0070
0060
01c0
0780
1e00
1800
1800
0000
0000
3000
7800
f800
7000
ENDCHAR
STARTCHAR at
ENCODING 64
SWIDTH 597 0
DWIDTH 20 0
BBX 19 18 2 1
BITMAP
007e00
03ff80
0701c0
0c00e0
183660
30fe60
71dc60
618c60
631860
c318c0
c630c0
c63180
c6f380
c7df00
619e00
700700
3ffe00
0ff000
ENDCHAR
STARTCHAR A
ENCODING 65
SWIDTH 597 0
DWIDTH 20 0
BBX 19 19 1 1
BITMAP
01fc00
01fc00
001c00
003600
002600
006600
00c200
00c200
018300
010300
030300
07ff00
07ff00
0c0180
080180
180180
300080
fe0fe0
fe0fe0
ENDCHAR
STARTCHAR B
ENCODING 66
SWIDTH 597 0
DWIDTH 20 0
BBX 19 19 1 1
BITMAP
0fff00
0fffc0
0100e0
030060
030060
030060
0200c0
020380
07ff00
07ff00
060380
0401c0
0c00c0
0c00c0
0c00c0
080180
080380
7fff00
fffc00
ENDCHAR
STARTCHAR C
ENCODING 67
SWIDTH 597 0
DWIDTH 20 0
BBX 18 19 4 1
BITMAP
00fc40
03fe40
0f06c0
1c0180
380180
300180
600180
600000
600000
c00000
c00000
c00000
c00000
c00000
c00000
600000
700e00
3ffc00
0ff000
ENDCHAR
STARTCHAR D
ENCODING 68
SWIDTH 597 0
DWIDTH 20 0
BBX 20 19 1 1
BITMAP
0fff00
0fffc0
0301e0
030060
020070
020030
060030
060030
060030
040020
0c0060
0c0060
0c00c0
0800c0
080180
180300
180600
fffc00
fff000
ENDCHAR
STARTCHAR E
ENCODING 69
SWIDTH 597 0
DWIDTH 20 0
BBX 20 19 2 1
BITMAP
0ffff0
0ffff0
030030
030020
030060
020060
060400
060c00
07fc00
07fc00
060c00
0c0800
0c0000
0c00c0
0c0080
180180
180180
ffff80
ffff00
ENDCHAR
STARTCHAR F
ENCODING 70
SWIDTH 597 0
DWIDTH 20 0
BBX 19 19 3 1
BITMAP
0fffe0
0fffe0
020060
020040
020040
020040
060800
060800
07f800
07f800
0c1800
0c1000
080000
080000
080000
180000
180000
ff8000
ff8000
ENDCHAR
STARTCHAR G
ENCODING 71
SWIDTH 597 0
DWIDTH 20 0
BBX 19 19 3 1
BITMAP
00fc40
03fee0
0703c0
0e01c0
1801c0
380180
300180
600000
600000
c00000
c00000
c07fc0
c07fc0
c00300
c00200
e00200
700600
3ffc00
0fe000
ENDCHAR
STARTCHAR H
ENCODING 72
SWIDTH 597 0
DWIDTH 20 0
BBX 21 19 1 1
BITMAP
0fc3f8
0fc3f8
0200c0
0200c0
0200c0
060080
060080
040180
07ff80
0fff80
0c0100
0c0100
080300
080300
180200
180200
180200
fe1f80
fe1f80
ENDCHAR
STARTCHAR I
ENCODING 73
SWIDTH 597 0
DWIDTH 20 0
BBX 17 19 3 1
BITMAP
0fff80
0fff80
006000
006000
004000
00c000
00c000
00c000
00c000
008000
018000
018000
018000
018000
010000
030000
030000
fff800
fff800
ENDCHAR
STARTCHAR J
ENCODING 74
SWIDTH 597 0
DWIDTH 20 0
BBX 21 19 2 1
BITMAP
00fff8
00fff8
000100
000300
000300
000300
000200
000600
000600
000600
600600
600c00
600c00
600c00
601c00
e01800
e03800
fff000
1fc000
ENDCHAR
STARTCHAR K
ENCODING 75
SWIDTH 597 0
DWIDTH 20 0
BBX 20 19 2 1
BITMAP
0fe3f0
0fe3f0
0300c0
020300
020600
020c00
063000
066000
06c000
07c000
066000
0c3000
083000
081800
080800
180c00
180c00
fe0780
fe0780
ENDCHAR
STARTCHAR L
ENCODING 76
SWIDTH 597 0
DWIDTH 20 0
BBX 18 19 2 1
BITMAP
0ff800
0ff800
010000
010000
030000
030000
030000
020000
060000
060000
060000
0400c0
0400c0
0c0080
0c0180
0c0180
080180
ffff00
ffff00
ENDCHAR
STARTCHAR M
ENCODING 77
SWIDTH 597 0
DWIDTH 20 0
BBX 23 19 0 1
BITMAP
0f803e
0fc07e
02c0d8
02c0d0
024190
044130
044330
046230
0c6620
0c6420
086860
083860
183060
183040
100040
100040
3000c0
fe0ff0
fe0ff0
ENDCHAR
STARTCHAR N
ENCODING 78
SWIDTH 597 0
DWIDTH 20 0
BBX 23 19 1 1
BITMAP
0fc1fe
0fc1fe
036010
036010
036030
027030
063030
063020
063860
041860
0c1860
0c1840
0c0cc0
080cc0
080cc0
180ec0
180780
ff8780
ff0780
ENDCHAR
STARTCHAR O
ENCODING 79
SWIDTH 597 0
DWIDTH 20 0
BBX 18 19 3 1
BITMAP
00fc00
03fe00
0f0700
1c0180
180180
3000c0
7000c0
6000c0
6000c0
c000c0
c00180
c00180
c00180
c00300
c00600
600e00
703800
3ff000
0fc000
ENDCHAR
STARTCHAR P
ENCODING 80
SWIDTH 597 0
DWIDTH 20 0
BBX 18 19 3 1
BITMAP
0ffe00
0fff80
030180
0300c0
0200c0
0200c0
0600c0
060080
060180
040300
0ffe00
0ff800
0c0000
080000
080000
180000
180000
ff8000
ff8000
ENDCHAR
STARTCHAR Q
ENCODING 81
SWIDTH 597 0
DWIDTH 20 0
BBX 18 23 3 -3
BITMAP
00fc00
03ff00
0f0780
1c0180
1801c0
3000c0
7000c0
6000c0
6000c0
c000c0
c00180
c00180
c00180
c00300
c00600
600e00
703800
3ff000
1fc000
0c0000
3f0000
7ffc00
407800
ENDCHAR
STARTCHAR R
ENCODING 82
SWIDTH 597 0
DWIDTH 20 0
BBX 19 19 1 1
BITMAP
0fff00
0fffc0
0100e0
030060
030060
030060
0200c0
0201c0
060380
07fe00
07f000
041800
0c1800
0c0c00
0c0c00
080600
080600
7f07e0
ff03e0
ENDCHAR
STARTCHAR S
ENCODING 83
SWIDTH 597 0
DWIDTH 20 0
BBX 19 20 2 0
BITMAP
00fc40
03ffe0
0703c0
0601c0
0c0180
0c0180
0c0000
0e0000
070000
03f800
003e00
000700
000300
600300
600300
700600
780e00
dffc00
4ff000
400000
ENDCHAR
STARTCHAR T
ENCODING 84
SWIDTH 597 0
DWIDTH 20 0
BBX 18 19 4 1
BITMAP
3fffc0
3fffc0
6040c0
60c0c0
60c080
c0c080
c0c180
008000
018000
018000
018000
010000
030000
030000
030000
020000
020000
7fe000
7fe000
ENDCHAR
STARTCHAR U
ENCODING 85
SWIDTH 597 0
DWIDTH 20 0
BBX 19 19 4 1
BITMAP
ff0fe0
ff1fe0
180100
100300
300300
300300
300200
200200
600600
600600
600600
e00400
c00400
c00c00
c00c00
c01800
e07800
7ff000
1fc000
ENDCHAR
STARTCHAR V
ENCODING 86
SWIDTH 597 0
DWIDTH 20 0
BBX 20 19 4 1
BITMAP
ff07f0
fe0ff0
300080
180180
180300
180200
180600
180400
180c00
081800
0c1000
0c3000
0c6000
0c6000
0cc000
058000
058000
070000
060000
ENDCHAR
STARTCHAR W
ENCODING 87
SWIDTH 597 0
DWIDTH 20 0
BBX 20 19 4 1
BITMAP
fe07f0
fe07f0
2000c0
6000c0
604080
60c180
61c180
616100
636300
626200
666200
446600
4c2400
482400
502c00
f03800
e03800
e03800
403000
ENDCHAR
STARTCHAR X
ENCODING 88
SWIDTH 597 0
DWIDTH 20 0
BBX 21 19 1 1
BITMAP
0fe1f8
0fe1f8
030040
0180c0
018180
00c300
004600
006c00
003800
003000
007800
00d800
018c00
030c00
040600
080600
300300
fe1fc0
fe1fc0
ENDCHAR
STARTCHAR Y
ENCODING 89
SWIDTH 597 0
DWIDTH 20 0
BBX 18 19 5 1
BITMAP
fe1fc0
fe1fc0
300600
180400
180c00
081800
0c3000
0c6000
064000
068000
078000
030000
020000
020000
060000
060000
060000
7fc000
7fc000
ENDCHAR
STARTCHAR Z
ENCODING 90
SWIDTH 597 0
DWIDTH 20 0
BBX 17 19 3 1
BITMAP
0fff80
0fff80
080300
180600
180c00
181800
103000
006000
00c000
018000
030000
030000
060200
0c0200
180600
300600
600400
fffc00
fffc00
ENDCHAR
STARTCHAR bracketleft
ENCODING 91
SWIDTH 597 0
DWIDTH 20 0
BBX 11 25 10 -2
BITMAP
07e0
07e0
0400
0400
0c00
0c00
0c00
0800
1800
1800
1800
1000
1000
3000
3000
3000
2000
2000
6000
6000
6000
4000
c000
fc00
fc00
ENDCHAR
STARTCHAR backslash
ENCODING 92
SWIDTH 597 0
DWIDTH 20 0
BBX 8 28 8 -4
BITMAP
c0
c0
c0
40
60
60
60
20
30
30
30
10
18
18
18
08
08
0c
0c
04
04
06
06
02
02
03
03
03
ENDCHAR
STARTCHAR bracketright
ENCODING 93
SWIDTH 597 0
DWIDTH 20 0
BBX 11 25 3 -2
BITMAP
07e0
07e0
0060
0040
00c0
00c0
00c0
0080
0080
0180
0180
0180
0100
0100
0300
0300
0300
0200
0600
0600
0600
0400
0400
fc00
fc00
ENDCHAR
STARTCHAR asciicircum
ENCODING 94
SWIDTH 597 0
DWIDTH 20 0
BBX 15 15 5 5
BITMAP
0380
0380
07c0
06c0
0ee0
0c60
1c60
1c70
3830
3838
7018
701c
701c
e00c
200e
ENDCHAR
STARTCHAR underscore
ENCODING 95
SWIDTH 597 0
DWIDTH 20 0
BBX 23 2 -2 -3
BITMAP
fffffe
fffffe
ENDCHAR
STARTCHAR quoteleft
ENCODING 96
SWIDTH 597 0
DWIDTH 20 0
BBX 8 8 7 12
BITMAP
06
0e
0c
1c
38
38
70
f0
ENDCHAR
STARTCHAR a
ENCODING 97
SWIDTH 597 0
DWIDTH 20 0
BBX 15 14 3 1
BITMAP
03f8
1ffe
0006
0006
0006
0ffc
3ffc
700c
600c
c018
c018
c0f8
7fde
3f1e
ENDCHAR
STARTCHAR b
ENCODING 98
SWIDTH 597 0
DWIDTH 20 0
BBX 20 20 0 1
BITMAP
0f8000
038000
018000
010000
010000
030000
031f00
027fc0
03e0e0
078070
070030
060030
040030
040030
0c0060
0c00e0
0e01c0
0f0780
7bff00
78f800
ENDCHAR
STARTCHAR c
ENCODING 99
SWIDTH 597 0
DWIDTH 20 0
BBX 17 15 3 1
BITMAP
000080
01fd80
0fff80
1e0700
380300
700300
600000
c00000
c00000
c00000
c00000
e00400
701e00
3ff800
0fe000
ENDCHAR
STARTCHAR d
ENCODING 100
SWIDTH 597 0
DWIDTH 20 0
BBX 18 19 3 1
BITMAP
003fc0
000180
000180
000180
000180
03f100
0ffb00
1c1f00
300700
600700
600600
c00600
c00600
c00600
c00c00
e01c00
707c00
3fef00
1f8f00
ENDCHAR
STARTCHAR e
ENCODING 101
SWIDTH 597 0
DWIDTH 20 0
BBX 16 14 4 1
BITMAP
03f8
0ffc
1c0e
3003
6003
4003
ffff
ffff
c000
c000
c000
600c
7ffc
1fe0
ENDCHAR
STARTCHAR f
ENCODING 102
SWIDTH 597 0
DWIDTH 20 0
BBX 18 20 3 1
BITMAP
003fc0
00fe00
01c000
018000
018000
010000
1ffc00
1ffc00
030000
030000
020000
060000
060000
060000
040000
0c0000
0c0000
0c0000
fff000
ffe000
ENDCHAR
STARTCHAR g
ENCODING 103
SWIDTH 597 0
DWIDTH 20 0
BBX 18 19 3 -4
BITMAP
03e3c0
0ffbc0
1c1e00
300e00
600e00
e00400
c00c00
c00c00
c00c00
c01c00
e03800
70f800
3fd800
1f1800
001000
003000
007000
3fe000
3f8000
ENDCHAR
STARTCHAR h
ENCODING 104
SWIDTH 597 0
DWIDTH 20 0
BBX 18 20 1 1
BITMAP
0f8000
078000
010000
010000
030000
030000
033e00
02ff80
07c180
060180
060180
040180
040180
0c0100
0c0100
080300
080300
180300
ff1fc0
fe1fc0
ENDCHAR
STARTCHAR i
ENCODING 105
SWIDTH 597 0
DWIDTH 20 0
BBX 14 22 3 1
BITMAP
0030
0030
0070
0070
0000
0000
0000
0000
0fe0
0fe0
0040
0040
00c0
00c0
00c0
0180
0180
0180
0180
0300
fffc
fffc
ENDCHAR
STARTCHAR j
ENCODING 106
SWIDTH 597 0
DWIDTH 20 0
BBX 16 27 1 -4
BITMAP
0003
0003
0007
0007
0000
0000
0000
0000
0ffe
0ffe
0006
0004
000c
000c
000c
000c
0018
0018
0018
0018
0030
0030
0030
0060
00e0
7fc0
3f00
ENDCHAR
STARTCHAR k
ENCODING 107
SWIDTH 597 0
DWIDTH 20 0
BBX 19 20 2 1
BITMAP
0f8000
078000
018000
010000
030000
030000
020fe0
021fe0
060e00
063800
04f000
05c000
0fc000
0e6000
0c3000
0c1800
181c00
180c00
f83fc0
f03f80
ENDCHAR
STARTCHAR l
ENCODING 108
SWIDTH 597 0
DWIDTH 20 0
BBX 13 20 4 1
BITMAP
0fe0
0fe0
0060
0040
0040
0040
00c0
00c0
0080
0080
0080
0180
0100
0100
0100
0100
0300
0200
fff8
fff8
ENDCHAR
STARTCHAR m
ENCODING 109
SWIDTH 597 0
DWIDTH 20 0
BBX 20 14 0 1
BITMAP
1ef1e0
1ffff0
061c30
041830
0c1830
0c1830
081020
081020
183060
183060
183040
102040
fe78f0
fc78f0
ENDCHAR
STARTCHAR n
ENCODING 110
SWIDTH 597 0
DWIDTH 20 0
BBX 18 14 1 1
BITMAP
1e3e00
1fff80
078180
060180
040180
040180
0c0100
0c0100
0c0100
080300
180300
180200
ff1fc0
fe1fc0
ENDCHAR
STARTCHAR o
ENCODING 111
SWIDTH 597 0
DWIDTH 20 0
BBX 17 14 3 1
BITMAP
03fc00
0ffe00
1c0700
300380
600180
600180
c00180
c00180
c00300
c00700
e00e00
703c00
3ff000
0fc000
ENDCHAR
STARTCHAR p
ENCODING 112
SWIDTH 597 0
DWIDTH 20 0
BBX 21 19 -1 -4
BITMAP
0f9fc0
0fffe0
01f070
01c018
038018
030018
020018
020018
060030
060070
0700e0
0583c0
05ff80
0c7c00
0c0000
0c0000
080000
7fc000
ffc000
ENDCHAR
STARTCHAR q
ENCODING 113
SWIDTH 597 0
DWIDTH 20 0
BBX 19 19 3 -4
BITMAP
03f1e0
0fffe0
1c0f00
300700
600600
600600
c00600
c00600
c00600
c00c00
e01c00
707c00
3fec00
1f8800
000800
001800
001800
03fe00
03fe00
ENDCHAR
STARTCHAR r
ENCODING 114
SWIDTH 597 0
DWIDTH 20 0
BBX 18 14 3 1
BITMAP
1f1f80
1f3fc0
0170c0
03c000
030000
020000
020000
020000
060000
060000
040000
040000
fff000
fff000
ENDCHAR
STARTCHAR s
ENCODING 115
SWIDTH 597 0
DWIDTH 20 0
BBX 16 14 3 1
BITMAP
03f9
0fff
1806
3006
3000
3800
1ff0
03fc
0006
6006
6006
601c
fff8
c7e0
ENDCHAR
STARTCHAR t
ENCODING 116
SWIDTH 597 0
DWIDTH 20 0
BBX 12 19 6 1
BITMAP
0800
1800
1800
1000
1000
fff0
ffe0
3000
3000
2000
6000
6000
6000
c000
c000
c000
c030
7ff0
3f80
ENDCHAR
STARTCHAR u
ENCODING 117
SWIDTH 597 0
DWIDTH 20 0
BBX 15 14 4 1
BITMAP
f03e
f03c
3004
300c
200c
6008
6008
6018
e018
c018
c030
e0f0
7ffe
3f3c
ENDCHAR
STARTCHAR v
ENCODING 118
SWIDTH 597 0
DWIDTH 20 0
BBX 19 14 3 1
BITMAP
ff0fe0
fe0fe0
180300
180600
180400
1c0c00
0c1800
0c3000
0c2000
046000
06c000
078000
070000
030000
ENDCHAR
STARTCHAR w
ENCODING 119
SWIDTH 597 0
DWIDTH 20 0
BBX 20 14 3 1
BITMAP
fc03f0
fc03f0
604040
20c0c0
20e080
21e180
316100
336300
366600
362400
3c2c00
3c3800
383800
303000
ENDCHAR
STARTCHAR x
ENCODING 120
SWIDTH 597 0
DWIDTH 20 0
BBX 20 14 1 1
BITMAP
1fc3f0
1fc3f0
030380
018700
00cc00
007800
006000
00f000
019800
030c00
0e0e00
180700
fe1fc0
fe1fc0
ENDCHAR
STARTCHAR y
ENCODING 121
SWIDTH 597 0
DWIDTH 20 0
BBX 18 20 4 -5
BITMAP
fe3fc0
fe3f80
100400
300400
200c00
200c00
600c00
600800
601800
603800
607800
30d800
3f9000
1e3000
003000
003000
006000
21c000
7f8000
3f0000
ENDCHAR
STARTCHAR z
ENCODING 122
SWIDTH 597 0
DWIDTH 20 0
BBX 16 14 3 1
BITMAP
1fff
1fff
1006
101c
0030
0060
01c0
0300
0600
0c0c
380c
600c
fff8
fff8
ENDCHAR
STARTCHAR braceleft
ENCODING 123
SWIDTH 597 0
DWIDTH 20 0
BBX 11 25 9 -2
BITMAP
01e0
03c0
0700
0600
0c00
0c00
0c00
0c00
0c00
0c00
0c00
1800
7000
7000
1800
1800
1800
3000
3000
2000
6000
6000
6000
7c00
3c00
ENDCHAR
STARTCHAR bar
ENCODING 124
SWIDTH 597 0
DWIDTH 20 0
BBX 2 28 11 -5
BITMAP
c0
c0
c0
c0
c0
c0
c0
c0
c0
c0
c0
c0
c0
c0
c0
c0
c0
c0
c0
c0
c0
c0
c0
c0
c0
c0
c0
c0
ENDCHAR
STARTCHAR braceright
ENCODING 125
SWIDTH 597 0
DWIDTH 20 0
BBX 10 25 4 -2
BITMAP
0e00
0f80
01c0
00c0
00c0
00c0
0180
0180
0300
0300
0300
0380
01c0
03c0
0600
0e00
0c00
0c00
0c00
0c00
0c00
0c00
0c00
f800
e000
ENDCHAR
STARTCHAR asciitilde
ENCODING 126
SWIDTH 597 0
DWIDTH 20 0
BBX 14 5 5 9
BITMAP
0004
3e0c
7ff8
c1f0
8000
ENDCHAR
STARTCHAR space
ENCODING 160
SWIDTH 597 0
DWIDTH 20 0
BBX 0 0 0 1
BITMAP
ENDCHAR
STARTCHAR Aogonek
ENCODING 161
SWIDTH 597 0
DWIDTH 20 0
BBX 20 23 0 -3
BITMAP
00fc00
01fe00
000e00
001600
003600
002300
006300
00c300
008300
018300
010180
03ff80
07ff80
060080
0c00c0
1800c0
1000c0
7e07f0
fe07f0
000300
000640
000780
000300
ENDCHAR
STARTCHAR breve
ENCODING 162
SWIDTH 597 0
DWIDTH 20 0
BBX 11 4 9 18
BITMAP
4000
c040
7fe0
3f00
ENDCHAR
STARTCHAR Lslash
ENCODING 163
SWIDTH 597 0
DWIDTH 20 0
BBX 18 19 2 1
BITMAP
0ff800
0ff800
010000
010000
030000
030400
031c00
027000
03c000
1f0080
3e00c0
3400c0
0400c0
0c0180
0c0180
0c0180
080180
ffff00
ffff00
ENDCHAR
STARTCHAR currency
ENCODING 164
SWIDTH 597 0
DWIDTH 20 0
BBX 14 15 5 3
BITMAP
4004
c00c
6798
3ff0
3870
7038
6018
6018
6018
6018
3030
3870
7ff8
e78c
8004
ENDCHAR
STARTCHAR Lcaron
ENCODING 165
SWIDTH 597 0
DWIDTH 20 0
BBX 20 20 2 1
BITMAP
0000e0
0ff9c0
0ffb80
010600
010000
030000
030000
030000
020000
060000
060000
060000
0400c0
0400c0
0c0080
0c0180
0c0180
080180
ffff00
ffff00
ENDCHAR
STARTCHAR Sacute
ENCODING 166
SWIDTH 597 0
DWIDTH 20 0
BBX 19 26 2 0
BITMAP
000700
000e00
001c00
003000
000000
000000
00fc40
03ffe0
0703c0
0601c0
0c0180
0c0180
0c0000
0e0000
070000
03f800
003e00
000700
000300
600300
600300
700600
780e00
dffc00
4ff000
400000
ENDCHAR
STARTCHAR section
ENCODING 167
SWIDTH 597 0
DWIDTH 20 0
BBX 16 22 4 -2
BITMAP
00fe
03fe
0302
0606
0606
0600
0f00
1d80
38e0
3070
3038
181c
0c0c
060c
0338
01f0
00c0
40c0
40c0
c1c0
ff80
ff00
ENDCHAR
STARTCHAR dieresis
ENCODING 168
SWIDTH 597 0
DWIDTH 20 0
BBX 7 4 10 17
BITMAP
66
66
ee
cc
ENDCHAR
STARTCHAR Scaron
ENCODING 169
SWIDTH 597 0
DWIDTH 20 0
BBX 19 27 2 0
BITMAP
001080
0031c0
003b80
001f00
000e00
000000
000000
00fc40
03ffe0
0703c0
0601c0
0c0180
0c0180
0c0000
0e0000
070000
03f800
003e00
000700
000300
600300
600300
700600
780e00
dffc00
4ff000
400000
ENDCHAR
STARTCHAR Scedilla
ENCODING 170
SWIDTH 597 0
DWIDTH 20 0
BBX 19 24 2 -4
BITMAP
00fc40
03fee0
0703c0
0601c0
0c0180
0c0180
0c0000
0e0000
078000
03fc00
003e00
000700
000300
600300
600300
700600
780e00
dffc00
c7f000
418000
01c000
006000
0fe000
078000
ENDCHAR
STARTCHAR Tcaron
ENCODING 171
SWIDTH 597 0
DWIDTH 20 0
BBX 18 26 4 1
BITMAP
008400
018e00
01dc00
00f800
007000
000000
000000
3fffc0
3fffc0
6040c0
60c0c0
60c080
c0c080
c0c180
008000
018000
018000
018000
010000
030000
030000
030000
020000
020000
7fe000
7fe000
ENDCHAR
STARTCHAR Zacute
ENCODING 172
SWIDTH 597 0
DWIDTH 20 0
BBX 17 25 3 1
BITMAP
000e00
001c00
003800
006000
000000
000000
0fff80
0fff80
080300
180600
180c00
181800
103000
006000
00c000
018000
030000
030000
060200
0c0200
180600
300600
600400
fffc00
fffc00
ENDCHAR
STARTCHAR hyphen
ENCODING 173
SWIDTH 597 0
DWIDTH 20 0
BBX 7 2 9 10
BITMAP
fe
fe
ENDCHAR
STARTCHAR Zcaron
ENCODING 174
SWIDTH 597 0
DWIDTH 20 0
BBX 17 26 3 1
BITMAP
004200
00c700
00ee00
007c00
003800
000000
000000
0fff80
0fff80
080300
180600
180c00
181800
103000
006000
00c000
018000
030000
030000
060200
0c0200
180600
300600
600400
fffc00
fffc00
ENDCHAR
STARTCHAR Zdotaccent
ENCODING 175
SWIDTH 597 0
DWIDTH 20 0
BBX 17 25 3 1
BITMAP
000c00
001c00
001c00
001800
000000
000000
0fff80
0fff80
080300
180600
180c00
181800
103000
006000
00c000
018000
030000
030000
060200
0c0200
180600
300600
600400
fffc00
fffc00
ENDCHAR
STARTCHAR degree
ENCODING 176
SWIDTH 597 0
DWIDTH 20 0
BBX 10 10 7 11
BITMAP
1e00
7f80
61c0
c0c0
c0c0
c0c0
e1c0
7180
3f00
1e00
ENDCHAR
STARTCHAR aogonek
ENCODING 177
SWIDTH 597 0
DWIDTH 20 0
BBX 15 18 3 -3
BITMAP
03f8
1ffe
0006
0006
0006
0ffc
3ffc
700c
600c
c018
c018
c0f8
7fde
3f3e
0070
0064
0078
0030
ENDCHAR
STARTCHAR ogonek
ENCODING 178
SWIDTH 597 0
DWIDTH 20 0
BBX 6 4 7 -3
BITMAP
30
c0
f0
e0
ENDCHAR
STARTCHAR lslash
ENCODING 179
SWIDTH 597 0
DWIDTH 20 0
BBX 15 20 3 1
BITMAP
0fe0
0fe0
0060
0060
0040
0040
0046
00dc
00f0
03c0
1f80
3d80
1180
0100
0100
0100
0300
0200
fff8
fff8
ENDCHAR
STARTCHAR acute
ENCODING 180
SWIDTH 597 0
DWIDTH 20 0
BBX 7 4 10 17
BITMAP
1c
38
70
c0
ENDCHAR
STARTCHAR lcaron
ENCODING 181
SWIDTH 597 0
DWIDTH 20 0
BBX 18 20 4 1
BITMAP
0fe380
0fe700
006e00
005800
004000
004000
00c000
00c000
008000
008000
008000
018000
010000
010000
010000
010000
030000
020000
fff800
fff800
ENDCHAR
STARTCHAR sacute
ENCODING 182
SWIDTH 597 0
DWIDTH 20 0
BBX 16 20 3 1
BITMAP
0038
0070
00e0
0180
0000
0000
03f9
0fff
1806
3006
3000
3800
1ff0
03fc
0006
6006
6006
601c
fff8
c7e0
ENDCHAR
STARTCHAR caron
ENCODING 183
SWIDTH 597 0
DWIDTH 20 0
BBX 8 4 10 17
BITMAP
c3
66
7c
38
ENDCHAR
STARTCHAR cedilla
ENCODING 184
SWIDTH 597 0
DWIDTH 20 0
BBX 7 7 6 -4
BITMAP
18
18
1c
1e
06
fe
fc
ENDCHAR
STARTCHAR scaron
ENCODING 185
SWIDTH 597 0
DWIDTH 20 0
BBX 16 20 3 1
BITMAP
0186
00cc
00f8
0070
0000
0000
03f9
0fff
1806
3006
3000
3800
1ff0
03fc
0006
6006
6006
601c
fff8
c7e0
ENDCHAR
STARTCHAR scedilla
ENCODING 186
SWIDTH 597 0
DWIDTH 20 0
BBX 16 19 3 -4
BITMAP
03fb
0fff
1806
3006
3000
3800
1ff0
03fc
0006
6006
6006
601c
7ff8
4fe0
03c0
03c0
00c0
1fc0
0780
ENDCHAR
STARTCHAR tcaron
ENCODING 187
SWIDTH 597 0
DWIDTH 20 0
BBX 14 20 6 1
BITMAP
0038
0870
18e0
1980
1000
1000
fff0
ffe0
3000
3000
2000
6000
6000
6000
c000
c000
c000
c030
7ff0
3f80
ENDCHAR
STARTCHAR zacute
ENCODING 188
SWIDTH 597 0
DWIDTH 20 0
BBX 16 20 3 1
BITMAP
0038
0070
00e0
0180
0000
0000
1fff
1fff
1006
101c
0030
0060
01c0
0300
0600
0c0c
380c
600c
fff8
fff8
ENDCHAR
STARTCHAR hungarumlaut
ENCODING 189
SWIDTH 597 0
DWIDTH 20 0
BBX 10 4 10 17
BITMAP
1980
3300
6600
cc00
ENDCHAR
STARTCHAR zcaron
ENCODING 190
SWIDTH 597 0
DWIDTH 20 0
BBX 16 20 3 1
BITMAP
0186
00cc
00f8
0070
0000
0000
1fff
1fff
1006
101c
0030
0060
01c0
0300
0600
0c0c
380c
600c
fff8
fff8
ENDCHAR
STARTCHAR zdotaccent
ENCODING 191
SWIDTH 597 0
DWIDTH 20 0
BBX 16 20 3 1
BITMAP
0030
0070
0070
0060
0000
0000
1fff
1fff
1006
101c
0030
0060
01c0
0300
0600
0c0c
380c
600c
fff8
fff8
ENDCHAR
STARTCHAR Racute
ENCODING 192
SWIDTH 597 0
DWIDTH 20 0
BBX 19 25 1 1
BITMAP
000380
000700
000e00
001800
000000
000000
0fff00
0fffc0
0100e0
030060
030060
030060
0200c0
0201c0
060380
07fe00
07f000
041800
0c1800
0c0c00
0c0c00
080600
080600
7f07e0
ff03e0
ENDCHAR
STARTCHAR Aacute
ENCODING 193
SWIDTH 597 0
DWIDTH 20 0
BBX 19 25 1 1
BITMAP
000e00
001c00
003800
006000
000000
000000
01fc00
01fc00
001c00
003600
002600
006600
00c200
00c200
018300
010300
030300
07ff00
07ff00
0c0180
080180
180180
300080
fe0fe0
fe0fe0
ENDCHAR
STARTCHAR Acircumflex
ENCODING 194
SWIDTH 597 0
DWIDTH 20 0
BBX 19 25 1 1
BITMAP
000e00
001f00
003300
006180
000000
000000
01fc00
01fc00
001c00
003600
002600
006600
00c200
00c200
018300
010300
030300
07ff00
07ff00
0c0180
080180
180180
300080
fe0fe0
fe0fe0
ENDCHAR
STARTCHAR Abreve
ENCODING 195
SWIDTH 597 0
DWIDTH 20 0
BBX 19 26 1 1
BITMAP
00a040
00e0e0
0073c0
003f80
001f00
000000
000000
01fc00
01fc00
001c00
003600
002600
006600
00c200
00c200
018300
010300
030300
07ff00
07ff00
0c0180
080180
180180
300080
fe0fe0
fe0fe0
ENDCHAR
STARTCHAR Adieresis
ENCODING 196
SWIDTH 597 0
DWIDTH 20 0
BBX 19 25 1 1
BITMAP
003300
003300
007700
006600
000000
000000
01fc00
01fc00
001c00
003600
002600
006600
00c200
00c200
018300
010300
030300
07ff00
07ff00
0c0180
080180
180180
300080
fe0fe0
fe0fe0
ENDCHAR
STARTCHAR Lacute
ENCODING 197
SWIDTH 597 0
DWIDTH 20 0
BBX 18 25 2 1
BITMAP
007000
00e000
01c000
030000
000000
000000
0ff800
0ff800
010000
010000
030000
030000
030000
020000
060000
060000
060000
0400c0
0400c0
0c0080
0c0180
0c0180
080180
ffff00
ffff00
ENDCHAR
STARTCHAR Cacute
ENCODING 198
SWIDTH 597 0
DWIDTH 20 0
BBX 18 25 4 1
BITMAP
001c00
003800
007000
00c000
000000
000000
00fc40
03fe40
0f06c0
1c0180
380180
300180
600180
600000
600000
c00000
c00000
c00000
c00000
c00000
c00000
600000
700e00
3ffc00
0ff000
ENDCHAR
STARTCHAR Ccedilla
ENCODING 199
SWIDTH 597 0
DWIDTH 20 0
BBX 18 24 4 -4
BITMAP
00fc40
03fec0
0f06c0
1c01c0
380180
300180
600180
600000
600000
c00000
c00000
c00000
c00000
c00000
c00000
600000
700e00
3ffc00
0ff000
030000
038000
00c000
1fc000
0f8000
ENDCHAR
STARTCHAR Ccaron
ENCODING 200
SWIDTH 597 0
DWIDTH 20 0
BBX 18 26 4 1
BITMAP
004200
00c700
00ee00
007c00
003800
000000
000000
00fc40
03fe40
0f06c0
1c0180
380180
300180
600180
600000
600000
c00000
c00000
c00000
c00000
c00000
c00000
600000
700e00
3ffc00
0ff000
ENDCHAR
STARTCHAR Eacute
ENCODING 201
SWIDTH 597 0
DWIDTH 20 0
BBX 20 25 2 1
BITMAP
000700
000e00
001c00
003000
000000
000000
0ffff0
0ffff0
030030
030020
030060
020060
060400
060c00
07fc00
07fc00
060c00
0c0800
0c0000
0c00c0
0c0080
180180
180180
ffff80
ffff00
ENDCHAR
STARTCHAR Eogonek
ENCODING 202
SWIDTH 597 0
DWIDTH 20 0
BBX 19 23 2 -3
BITMAP
0fffe0
1fffe0
030060
030060
020060
060060
060c00
060c00
07f800
07f800
0c0800
0c0800
0c0000
080180
080180
180180
180100
ffff00
ffff00
001800
003200
003c00
001800
ENDCHAR
STARTCHAR Edieresis
ENCODING 203
SWIDTH 597 0
DWIDTH 20 0
BBX 20 25 2 1
BITMAP
001980
001980
003b80
003300
000000
000000
0ffff0
0ffff0
030030
030020
030060
020060
060400
060c00
07fc00
07fc00
060c00
0c0800
0c0000
0c00c0
0c0080
180180
180180
ffff80
ffff00
ENDCHAR
STARTCHAR Ecaron
ENCODING 204
SWIDTH 597 0
DWIDTH 20 0
BBX 20 26 2 1
BITMAP
001080
0031c0
003b80
001f00
000e00
000000
000000
0ffff0
0ffff0
030030
030020
030060
020060
060400
060c00
07fc00
07fc00
060c00
0c0800
0c0000
0c00c0
0c0080
180180
180180
ffff80
ffff00
ENDCHAR
STARTCHAR Iacute
ENCODING 205
SWIDTH 597 0
DWIDTH 20 0
BBX 17 25 3 1
BITMAP
001c00
003800
007000
00c000
000000
000000
0fff80
0fff80
006000
006000
004000
00c000
00c000
00c000
00c000
008000
018000
018000
018000
018000
010000
030000
030000
fff800
fff800
ENDCHAR
STARTCHAR Icircumflex
ENCODING 206
SWIDTH 597 0
DWIDTH 20 0
BBX 17 25 3 1
BITMAP
001c00
003e00
006600
00c300
000000
000000
0fff80
0fff80
006000
006000
004000
00c000
00c000
00c000
00c000
008000
018000
018000
018000
018000
010000
030000
030000
fff800
fff800
ENDCHAR
STARTCHAR Dcaron
ENCODING 207
SWIDTH 597 0
DWIDTH 20 0
BBX 20 26 1 1
BITMAP
001080
0031c0
003b80
001f00
000e00
000000
000000
0fff00
0fffc0
0301e0
030060
020070
020030
060030
060030
060030
040020
0c0060
0c0060
0c00c0
0800c0
080180
180300
180600
fffc00
fff000
ENDCHAR
STARTCHAR Eth
ENCODING 208
SWIDTH 597 0
DWIDTH 20 0
BBX 20 19 1 1
BITMAP
0fff00
0fffc0
0301e0
030060
020070
060030
060030
060030
3ff030
3ff020
0c0060
0c0060
0c00c0
0800c0
080180
180300
180600
fffc00
fff000
ENDCHAR
STARTCHAR Nacute
ENCODING 209
SWIDTH 597 0
DWIDTH 20 0
BBX 23 25 1 1
BITMAP
000380
000700
000e00
001800
000000
000000
0fc1fe
0fc1fe
036010
036010
036030
027030
063030
063020
063860
041860
0c1860
0c1840
0c0cc0
080cc0
080cc0
180ec0
180780
ff8780
ff0780
ENDCHAR
STARTCHAR Ncaron
ENCODING 210
SWIDTH 597 0
DWIDTH 20 0
BBX 23 26 1 1
BITMAP
000840
0018e0
001dc0
000f80
000700
000000
000000
0fc1fe
0fc1fe
036010
036010
036030
027030
063030
063020
063860
041860
0c1860
0c1840
0c0cc0
080cc0
080cc0
180ec0
180780
ff8780
ff0780
ENDCHAR
STARTCHAR Oacute
ENCODING 211
SWIDTH 597 0
DWIDTH 20 0
BBX 18 25 3 1
BITMAP
000e00
001c00
003800
006000
000000
000000
00fc00
03fe00
0f0700
1c0180
180180
3000c0
7000c0
6000c0
6000c0
c000c0
c00180
c00180
c00180
c00300
c00600
600e00
703800
3ff000
0fc000
ENDCHAR
STARTCHAR Ocircumflex
ENCODING 212
SWIDTH 597 0
DWIDTH 20 0
BBX 18 25 3 1
BITMAP
000e00
001f00
003300
006180
000000
000000
00fc00
03fe00
0f0700
1c0180
180180
3000c0
7000c0
6000c0
6000c0
c000c0
c00180
c00180
c00180
c00300
c00600
600e00
703800
3ff000
0fc000
ENDCHAR
STARTCHAR Ohungarumlaut
ENCODING 213
SWIDTH 597 0
DWIDTH 20 0
BBX 18 25 3 1
BITMAP
001980
003300
006600
00cc00
000000
000000
00fc00
03fe00
0f0700
1c0180
180180
3000c0
7000c0
6000c0
6000c0
c000c0
c00180
c00180
c00180
c00300
c00600
600e00
703800
3ff000
0fc000
ENDCHAR
STARTCHAR Odieresis
ENCODING 214
SWIDTH 597 0
DWIDTH 20 0
BBX 18 25 3 1
BITMAP
003300
003300
007700
006600
000000
000000
00fc00
03fe00
0f0700
1c0180
180180
3000c0
7000c0
6000c0
6000c0
c000c0
c00180
c00180
c00180
c00300
c00600
600e00
703800
3ff000
0fc000
ENDCHAR
STARTCHAR multiply
ENCODING 215
SWIDTH 597 0
DWIDTH 20 0
BBX 12 12 6 5
BITMAP
4020
e060
70f0
39f0
1fc0
0f00
0f00
1f80
39c0
70e0
e070
4020
ENDCHAR
STARTCHAR Rcaron
ENCODING 216
SWIDTH 597 0
DWIDTH 20 0
BBX 19 26 1 1
BITMAP
001080
0031c0
003b80
001f00
000e00
000000
000000
0fff00
0fffc0
0100e0
030060
030060
030060
0200c0
0201c0
060380
07fe00
07f000
041800
0c1800
0c0c00
0c0c00
080600
080600
7f07e0
ff03e0
ENDCHAR
STARTCHAR Uring
ENCODING 217
SWIDTH 597 0
DWIDTH 20 0
BBX 19 26 4 1
BITMAP
003800
007c00
006c00
006c00
007c00
003800
000000
ff0fe0
ff1fe0
180100
100300
300300
300300
300200
200200
600600
600600
600600
e00400
c00400
c00c00
c00c00
c01800
e07800
7ff000
1fc000
ENDCHAR
STARTCHAR Uacute
ENCODING 218
SWIDTH 597 0
DWIDTH 20 0
BBX 19 25 4 1
BITMAP
001c00
003800
007000
00c000
000000
000000
ff0fe0
ff1fe0
180100
100300
300300
300300
300200
200200
600600
600600
600600
e00400
c00400
c00c00
c00c00
c01800
e07800
7ff000
1fc000
ENDCHAR
STARTCHAR Uhungarumlaut
ENCODING 219
SWIDTH 597 0
DWIDTH 20 0
BBX 19 25 4 1
BITMAP
003300
006600
00cc00
019800
000000
000000
ff0fe0
ff1fe0
180100
100300
300300
300300
300200
200200
600600
600600
600600
e00400
c00400
c00c00
c00c00
c01800
e07800
7ff000
1fc000
ENDCHAR
STARTCHAR Udieresis
ENCODING 220
SWIDTH 597 0
DWIDTH 20 0
BBX 19 25 4 1
BITMAP
006600
006600
00ee00
00cc00
000000
000000
ff0fe0
ff1fe0
180100
100300
300300
300300
300200
200200
600600
600600
600600
e00400
c00400
c00c00
c00c00
c01800
e07800
7ff000
1fc000
ENDCHAR
STARTCHAR Yacute
ENCODING 221
SWIDTH 597 0
DWIDTH 20 0
BBX 18 25 5 1
BITMAP
003800
007000
00e000
018000
000000
000000
fe1fc0
fe1fc0
300600
180400
180c00
081800
0c3000
0c6000
064000
068000
078000
030000
020000
020000
060000
060000
060000
7fc000
7fc000
ENDCHAR
STARTCHAR Tcedilla
ENCODING 222
SWIDTH 597 0
DWIDTH 20 0
BBX 18 24 4 -4
BITMAP
3fffc0
7fffc0
604080
60c080
40c080
c0c180
c08180
018000
018000
018000
010000
010000
030000
030000
030000
020000
060000
7fe000
7fe000
070000
078000
018000
3f8000
1e0000
ENDCHAR
STARTCHAR germandbls
ENCODING 223
SWIDTH 597 0
DWIDTH 20 0
BBX 17 21 2 1
BITMAP
007c00
00ff00
018380
030180
020180
060180
060300
060600
043c00
0c7000
0c3c00
0c0e00
080700
080300
180300
180300
180300
100600
300e00
f1fc00
f1f000
ENDCHAR
STARTCHAR racute
ENCODING 224
SWIDTH 597 0
DWIDTH 20 0
BBX 18 20 3 1
BITMAP
003800
007000
00e000
018000
000000
000000
1f1f80
1f3fc0
0170c0
03c000
030000
020000
020000
020000
060000
060000
040000
040000
fff000
fff000
ENDCHAR
STARTCHAR aacute
ENCODING 225
SWIDTH 597 0
DWIDTH 20 0
BBX 15 20 3 1
BITMAP
0038
0070
00e0
0180
0000
0000
03f8
1ffe
0006
0006
0006
0ffc
3ffc
700c
600c
c018
c018
c0f8
7fde
3f1e
ENDCHAR
STARTCHAR acircumflex
ENCODING 226
SWIDTH 597 0
DWIDTH 20 0
BBX 15 20 3 1
BITMAP
0038
00fc
01ce
0000
0000
0000
03f8
1ffe
0006
0006
0006
0ffc
3ffc
700c
600c
c018
c018
c0f8
7fde
3f1e
ENDCHAR
STARTCHAR abreve
ENCODING 227
SWIDTH 597 0
DWIDTH 20 0
BBX 17 21 3 1
BITMAP
010000
030100
01ff80
00fc00
000000
000000
000000
03f800
1ffe00
000600
000600
000600
0ffc00
3ffc00
700c00
600c00
c01800
c01800
c0f800
7fde00
3f1e00
ENDCHAR
STARTCHAR adieresis
ENCODING 228
SWIDTH 597 0
DWIDTH 20 0
BBX 15 20 3 1
BITMAP
00cc
00cc
01dc
0198
0000
0000
03f8
1ffe
0006
0006
0006
0ffc
3ffc
700c
600c
c018
c018
c0f8
7fde
3f1e
ENDCHAR
STARTCHAR lacute
ENCODING 229
SWIDTH 597 0
DWIDTH 20 0
BBX 13 26 4 1
BITMAP
0070
00e0
01c0
0300
0000
0000
0fe0
0fe0
0060
0040
0040
0040
00c0
00c0
0080
0080
0080
0180
0100
0100
0100
0100
0300
0200
fff8
fff8
ENDCHAR
STARTCHAR cacute
ENCODING 230
SWIDTH 597 0
DWIDTH 20 0
BBX 17 20 3 1
BITMAP
003800
007000
00e000
018000
000000
000080
01fd80
0fff80
1e0700
380300
700300
600000
c00000
c00000
c00000
c00000
e00400
701e00
3ff800
0fe000
ENDCHAR
STARTCHAR ccedilla
ENCODING 231
SWIDTH 597 0
DWIDTH 20 0
BBX 17 20 3 -4
BITMAP
000080
01f980
0fff80
1e0780
380300
700300
600000
c00000
c00000
c00000
c00000
e00400
701e00
3ff800
0fe000
020000
078000
018000
1f8000
0f0000
ENDCHAR
STARTCHAR ccaron
ENCODING 232
SWIDTH 597 0
DWIDTH 20 0
BBX 17 20 3 1
BITMAP
018600
00cc00
00f800
007000
000000
000080
01fd80
0fff80
1e0700
380300
700300
600000
c00000
c00000
c00000
c00000
e00400
701e00
3ff800
0fe000
ENDCHAR
STARTCHAR eacute
ENCODING 233
SWIDTH 597 0
DWIDTH 20 0
BBX 16 20 4 1
BITMAP
0070
00e0
01c0
0300
0000
0000
03f8
0ffc
1c0e
3003
6003
4003
ffff
ffff
c000
c000
c000
600c
7ffc
1fe0
ENDCHAR
STARTCHAR eogonek
ENCODING 234
SWIDTH 597 0
DWIDTH 20 0
BBX 16 18 4 -3
BITMAP
03f8
0ffc
1c0e
3003
6003
4003
ffff
ffff
c000
c000
c000
600e
7ffc
1fc0
0300
0640
0780
0300
ENDCHAR
STARTCHAR edieresis
ENCODING 235
SWIDTH 597 0
DWIDTH 20 0
BBX 16 20 4 1
BITMAP
0198
0198
03b8
0330
0000
0000
03f8
0ffc
1c0e
3003
6003
4003
ffff
ffff
c000
c000
c000
600c
7ffc
1fe0
ENDCHAR
STARTCHAR ecaron
ENCODING 236
SWIDTH 597 0
DWIDTH 20 0
BBX 16 20 4 1
BITMAP
030c
0198
01f0
00e0
0000
0000
03f8
0ffc
1c0e
3003
6003
4003
ffff
ffff
c000
c000
c000
600c
7ffc
1fe0
ENDCHAR
STARTCHAR iacute
ENCODING 237
SWIDTH 597 0
DWIDTH 20 0
BBX 14 20 3 1
BITMAP
0038
0070
00e0
0180
0000
0000
0fe0
0fe0
0040
0040
00c0
00c0
00c0
0180
0180
0180
0180
0300
fffc
fffc
ENDCHAR
STARTCHAR icircumflex
ENCODING 238
SWIDTH 597 0
DWIDTH 20 0
BBX 14 20 3 1
BITMAP
0070
01f8
039c
0000
0000
0000
0fe0
0fe0
0040
0040
00c0
00c0
00c0
0180
0180
0180
0180
0300
fffc
fffc
ENDCHAR
STARTCHAR dcaron
ENCODING 239
SWIDTH 597 0
DWIDTH 20 0
BBX 25 20 3 1
BITMAP
00000700
003fce00
00019c00
0001b000
00018000
00018000
03f10000
0ffb0000
1c1f0000
30070000
60070000
60060000
c0060000
c0060000
c0060000
c00c0000
e01c0000
707c0000
3fef0000
1f8f0000
ENDCHAR
STARTCHAR dbar
ENCODING 240
SWIDTH 597 0
DWIDTH 20 0
BBX 20 19 3 1
BITMAP
003fc0
000180
01fff0
01fff0
000180
03f100
0ffb00
1c1f00
300700
600600
600600
c00600
c00600
c00400
c00c00
e01c00
707c00
3fef00
1f8f00
ENDCHAR
STARTCHAR nacute
ENCODING 241
SWIDTH 597 0
DWIDTH 20 0
BBX 18 20 1 1
BITMAP
000e00
001c00
003800
006000
000000
000000
1e3e00
1fff80
078180
060180
040180
040180
0c0100
0c0100
0c0100
080300
180300
180200
ff1fc0
fe1fc0
ENDCHAR
STARTCHAR ncaron
ENCODING 242
SWIDTH 597 0
DWIDTH 20 0
BBX 18 20 1 1
BITMAP
006180
003300
003e00
001c00
000000
000000
1e3e00
1fff80
078180
060180
040180
040180
0c0100
0c0100
0c0100
080300
180300
180200
ff1fc0
fe1fc0
ENDCHAR
STARTCHAR oacute
ENCODING 243
SWIDTH 597 0
DWIDTH 20 0
BBX 17 20 3 1
BITMAP
003800
007000
00e000
018000
000000
000000
03fc00
0ffe00
1c0700
300380
600180
600180
c00180
c00180
c00300
c00700
e00e00
703c00
3ff000
0fc000
ENDCHAR
STARTCHAR ocircumflex
ENCODING 244
SWIDTH 597 0
DWIDTH 20 0
BBX 17 20 3 1
BITMAP
003800
00fc00
01ce00
000000
000000
000000
03fc00
0ffe00
1c0700
300380
600180
600180
c00180
c00180
c00300
c00700
e00e00
703c00
3ff000
0fc000
ENDCHAR
STARTCHAR ohungarumlaut
ENCODING 245
SWIDTH 597 0
DWIDTH 20 0
BBX 17 20 3 1
BITMAP
003300
006600
00cc00
019800
000000
000000
03fc00
0ffe00
1c0700
300380
600180
600180
c00180
c00180
c00300
c00700
e00e00
703c00
3ff000
0fc000
ENDCHAR
STARTCHAR odieresis
ENCODING 246
SWIDTH 597 0
DWIDTH 20 0
BBX 17 20 3 1
BITMAP
00cc00
00cc00
01dc00
019800
000000
000000
03fc00
0ffe00
1c0700
300380
600180
600180
c00180
c00180
c00300
c00700
e00e00
703c00
3ff000
0fc000
ENDCHAR
STARTCHAR divide
ENCODING 247
SWIDTH 597 0
DWIDTH 20 0
BBX 16 14 4 4
BITMAP
01c0
01c0
01c0
0000
0000
0000
ffff
ffff
0000
0000
0000
01c0
01c0
01c0
ENDCHAR
STARTCHAR rcaron
ENCODING 248
SWIDTH 597 0
DWIDTH 20 0
BBX 18 20 3 1
BITMAP
018600
00cc00
00f800
007000
000000
000000
1f1f80
1f3fc0
0170c0
03c000
030000
020000
020000
020000
060000
060000
040000
040000
fff000
fff000
ENDCHAR
STARTCHAR uring
ENCODING 249
SWIDTH 597 0
DWIDTH 20 0
BBX 15 22 4 1
BITMAP
00c0
01e0
0330
0330
03f0
01c0
0000
0000
f03e
f03c
3004
300c
200c
6008
6008
6018
e018
c018
c030
e0f0
7ffe
3f3c
ENDCHAR
STARTCHAR uacute
ENCODING 250
SWIDTH 597 0
DWIDTH 20 0
BBX 15 20 4 1
BITMAP
0070
00e0
01c0
0300
0000
0000
f03e
f03c
3004
300c
200c
6008
6008
6018
e018
c018
c030
e0f0
7ffe
3f3c
ENDCHAR
STARTCHAR uhungarumlaut
ENCODING 251
SWIDTH 597 0
DWIDTH 20 0
BBX 16 20 4 1
BITMAP
0066
00cc
0198
0330
0000
0000
f03e
f03c
3004
300c
200c
6008
6008
6018
e018
c018
c030
e0f0
7ffe
3f3c
ENDCHAR
STARTCHAR udieresis
ENCODING 252
SWIDTH 597 0
DWIDTH 20 0
BBX 15 20 4 1
BITMAP
0198
0198
03b8
0330
0000
0000
f03e
f03c
3004
300c
200c
6008
6008
6018
e018
c018
c030
e0f0
7ffe
3f3c
ENDCHAR
STARTCHAR yacute
ENCODING 253
SWIDTH 597 0
DWIDTH 20 0
BBX 18 26 4 -5
BITMAP
007000
00e000
01c000
030000
000000
000000
fe3fc0
fe3f80
100400
300400
200c00
200c00
600c00
600800
601800
603800
607800
30d800
3f9000
1e3000
003000
003000
006000
21c000
7f8000
3f0000
ENDCHAR
STARTCHAR tcedilla
ENCODING 254
SWIDTH 597 0
DWIDTH 20 0
BBX 12 24 6 -4
BITMAP
0800
1800
1800
1000
1000
fff0
ffe0
3000
3000
2000
6000
6000
6000
c000
c000
c000
c030
7ff0
3f80
0e00
0f00
0300
7f00
3c00
ENDCHAR
STARTCHAR dotaccent
ENCODING 255
SWIDTH 597 0
DWIDTH 20 0
BBX 3 4 12 17
BITMAP
60
e0
e0
c0
ENDCHAR
ENDFONT
